<mxfile host="app.diagrams.net" modified="2023-10-16T12:26:52.480Z" agent="Mozilla/5.0 (Windows NT 10.0; Win64; x64) AppleWebKit/537.36 (KHTML, like Gecko) Chrome/116.0.0.0 Safari/537.36 Edg/116.0.1938.98" version="22.0.4" etag="jTF8MeHZGJaLuju3k1Fn" type="github">
  <diagram name="Pagina-1" id="vtF8noEJ9tD_e3JN_yAx">
    <mxGraphModel>
      <root>
        <mxCell id="0" />
        <mxCell id="1" parent="0" />
      </root>
    </mxGraphModel>
  </diagram>
</mxfile>
